# xmcd CD database file
#
# Track frame offsets:
#	150
#	27970
#	47537
#	62537
#	90195
#	109290
#	119430
#	147585
#	165582
#	187097
#	197337
#	228310
#
# Disc length: 3389 seconds
#
# Revision: 0
# Processed by: cddbd v1.4PL0 Copyright (c) Steve Scherf et al.
# Submitted via: CDex 1.50
#
DISCID=9b0d3b0c
DTITLE=David Berkman - Handmade
DYEAR=1998
DGENRE=Jazz
TTITLE0=Not a Christmas Song
TTITLE1=Handmade
TTITLE2=Pennies
TTITLE3=Take the Coltrane
TTITLE4=Sense of Loss
TTITLE5=Tiny Prairie landscape
TTITLE6=Fairy Tale
TTITLE7=Slides
TTITLE8=Maybe It'll Blow Over
TTITLE9=Later that Same Day
TTITLE10=Tom Harrell
TTITLE11=In Passing
EXTD=YEAR: 1998
EXTT0=
EXTT1=
EXTT2=
EXTT3=
EXTT4=
EXTT5=
EXTT6=
EXTT7=
EXTT8=
EXTT9=
EXTT10=
EXTT11=
PLAYORDER=
